<?xml version="1.0" standalone="no"?>
<!DOCTYPE svg PUBLIC "-//W3C//DTD SVG 1.1//EN" "http://www.w3.org/Graphics/SVG/1.1/DTD/svg11.dtd" >
<svg xmlns="http://www.w3.org/2000/svg" xmlns:xlink="http://www.w3.org/1999/xlink" version="1.1" viewBox="-10 0 1034 1000">
  <g transform="matrix(1 0 0 -1 0 800)">
   <path fill="currentColor"
d="M648.043 451.895c-22.1855 38.9385 -60.2441 56.0742 -85.0078 38.2764c-2.13867 -1.53711 -4.10352 -3.28906 -5.90332 -5.22461l-26.4346 46.4326l61.0391 107.607c4.99512 10.3613 6.83887 22.7031 4.41309 35.1152
c-2.31934 11.8643 -8.15625 21.8369 -16.0029 28.8584l-4.08496 2.91699l-72.3516 -127.092l-72.3535 127.092l-4.08301 -2.91602c-7.84668 -7.02246 -13.6846 -16.9941 -16.002 -28.8594c-2.42773 -12.4111 -0.583008 -24.7529 4.41211 -35.1143l61.0371 -107.607
l-26.4336 -46.4326c-1.7998 1.93555 -3.76465 3.6875 -5.90234 5.22461c-24.7646 17.7979 -62.8232 0.662109 -85.0088 -38.2764c-22.1836 -38.9365 -20.0947 -84.9307 4.66797 -102.728c24.7637 -17.7998 62.8213 -0.662109 85.0078 38.2754l54.6582 96.3594
l54.6582 -96.3594c22.1865 -38.9375 60.2441 -56.0762 85.0068 -38.2764c24.7627 17.7979 26.8525 63.792 4.66797 102.728zM422.149 406.778c-9.9873 -17.5264 -22.8008 -26.0537 -31.4639 -28.1914h-0.00195312c-2.82422 -0.698242 -6.75293 -1.125 -9.42383 0.794922
c-2.95898 2.12695 -4.92578 7.75391 -5.25684 15.0498c-0.537109 11.8252 3.20898 25.7217 10.2764 38.127c9.98633 17.5273 22.7998 26.0547 31.4619 28.1924c2.82617 0.696289 6.75684 1.12305 9.42676 -0.795898c2.96094 -2.12695 4.9248 -7.75195 5.25488 -15.0479
c0.540039 -11.8271 -3.20605 -25.7236 -10.2734 -38.1289zM503.71 514.557c-5.88086 0 -10.6465 5.35449 -10.6465 11.958c0 6.60254 4.76562 11.957 10.6465 11.957c5.87891 0 10.6455 -5.35449 10.6455 -11.957c0 -6.60352 -4.7666 -11.958 -10.6455 -11.958z
M631.417 394.434c-0.332031 -7.29785 -2.29688 -12.9238 -5.25684 -15.0508c-2.67188 -1.9209 -6.59863 -1.49414 -9.4248 -0.794922h-0.000976562c-8.66309 2.13672 -21.4766 10.665 -31.4629 28.1914c-7.06836 12.4043 -10.8145 26.3027 -10.2754 38.1289
c0.331055 7.29492 2.29492 12.9199 5.25586 15.0479c2.6709 1.91895 6.59961 1.49219 9.42676 0.794922c8.66211 -2.13574 21.4756 -10.6631 31.4619 -28.1904c7.06738 -12.4062 10.8125 -26.3027 10.2764 -38.127zM51.2139 790.972v-551.8h920.953v551.8h-920.953z
M914.607 294.352h-805.834v441.439h805.834v-441.439zM655.59 183.991h-287.799l-28.7793 -110.36l-57.5596 -55.1797h460.478l-57.5596 55.1797z" />
  </g>

</svg>
