<?xml version="1.0" standalone="no"?>
<!DOCTYPE svg PUBLIC "-//W3C//DTD SVG 1.1//EN" "http://www.w3.org/Graphics/SVG/1.1/DTD/svg11.dtd" >
<svg xmlns="http://www.w3.org/2000/svg" xmlns:xlink="http://www.w3.org/1999/xlink" version="1.1" viewBox="-10 0 1069 1024">
  <g transform="matrix(1 0 0 -1 0 960)">
   <path fill="currentColor"
d="M15 911v-640h1024v640h-1024zM975 335h-896v512h896v-512zM687 207h-320l-32 -128l-64 -64h512l-64 64zM607.93 813.62c-0.863281 0.341797 -1.86328 0.539062 -2.91211 0.539062c-2.39453 0 -4.53418 -1.02539 -5.98242 -2.64062l-0.00976562 -0.0078125
l-275.365 -310.102c-1.16992 -1.31348 -1.88379 -3.03613 -1.88379 -4.91602c0 -1.16602 0.275391 -2.27246 0.767578 -3.2627l-0.0205078 0.0458984l62.9404 -128.58c1.28906 -2.58496 3.99023 -4.34082 7.12012 -4.34082h275.367c2.07812 0 3.9668 0.772461 5.375 2.03711
l-0.00390625 -0.00488281l118.013 105.888c1.53711 1.38574 2.49609 3.35254 2.49609 5.53223c0 138.21 -104.729 308.601 -185.901 339.814v-0.00195312zM777.696 488.196l-127.133 81.4785l-45.46 94.6875l7.14844 130.535
c72.333 -37.6465 159.061 -182.512 165.444 -306.701zM589.443 666.184l-83.4482 -80.2188l-146.284 -67.2598l236.22 266.02zM516.984 575.139l77.7441 74.7363l41.9512 -87.374l22.4473 -187.02h-253.396zM654.107 549.222l119.218 -76.4023l-99.3477 -89.1445z
M340.095 492.916l152.216 69.9824l-99.2715 -178.142zM1005.74 950.755z" />
  </g>

</svg>
