<?xml version="1.0" standalone="no"?>
<!DOCTYPE svg PUBLIC "-//W3C//DTD SVG 1.1//EN" "http://www.w3.org/Graphics/SVG/1.1/DTD/svg11.dtd" >
<svg xmlns="http://www.w3.org/2000/svg" xmlns:xlink="http://www.w3.org/1999/xlink" version="1.1" viewBox="-10 0 1034 1000">
  <g transform="matrix(1 0 0 -1 0 800)">
   <path fill="currentColor"
d="M650.496 629.207c-7.02441 11.9961 -16.8154 26.0176 -27.5674 39.4834c-10.7529 13.4658 -21.9502 25.7256 -31.5293 34.5234c-16.3096 14.9766 -24.2207 16.709 -28.7529 16.709h-156.848c-13.9492 0 -25.2979 -14.2119 -25.2979 -31.6807v-342.151
c0 -17.4688 11.3486 -31.6816 25.2979 -31.6816h232.741c13.9502 0 25.2979 14.2129 25.2979 31.6816v247.109c0 5.67578 -1.38184 15.583 -13.3418 36.0068zM608.617 650.77c9.70898 -12.1582 17.3291 -23.127 22.9512 -32.2256h-48.6836v60.9639
c7.26855 -7.04004 16.0254 -16.583 25.7324 -28.7383zM643.6 346.091c0 -3.43359 -2.31641 -6.33691 -5.05957 -6.33691h-232.741c-2.74219 0 -5.05957 2.90332 -5.05957 6.33691v342.151c0 3.43359 2.31738 6.33594 5.05957 6.33594c0 0 156.834 0.000976562 156.848 0
v-88.7061c0 -6.99805 4.53027 -12.6719 10.1191 -12.6719h70.834v-247.109zM593.004 390.443h-141.668c-5.58887 0 -10.1201 5.67383 -10.1201 12.6729s4.53125 12.6719 10.1201 12.6719h141.668c5.58887 0 10.1191 -5.67285 10.1191 -12.6719
s-4.53027 -12.6729 -10.1191 -12.6729zM593.004 441.133h-141.668c-5.58887 0 -10.1201 5.67285 -10.1201 12.6719c0 7 4.53125 12.6729 10.1201 12.6729h141.668c5.58887 0 10.1191 -5.67285 10.1191 -12.6729c0 -6.99902 -4.53027 -12.6719 -10.1191 -12.6719z
M593.004 491.822h-141.668c-5.58887 0 -10.1201 5.67285 -10.1201 12.6719s4.53125 12.6729 10.1201 12.6729h141.668c5.58887 0 10.1191 -5.67383 10.1191 -12.6729s-4.53027 -12.6719 -10.1191 -12.6719zM51.2139 790.972v-551.8h920.953v551.8h-920.953zM914.607 294.352
h-805.834v441.439h805.834v-441.439zM655.59 183.991h-287.799l-28.7793 -110.36l-57.5596 -55.1797h460.478l-57.5596 55.1797z" />
  </g>

</svg>
