<?xml version="1.0" standalone="no"?>
<!DOCTYPE svg PUBLIC "-//W3C//DTD SVG 1.1//EN" "http://www.w3.org/Graphics/SVG/1.1/DTD/svg11.dtd" >
<svg xmlns="http://www.w3.org/2000/svg" xmlns:xlink="http://www.w3.org/1999/xlink" version="1.1" viewBox="-10 0 1069 1024">
  <g transform="matrix(1 0 0 -1 0 960)">
   <path fill="currentColor"
d="M15 911v-640h1024v640h-1024zM975 335h-896v512h896v-512zM687 207h-320l-32 -128l-64 -64h512l-64 64zM686.297 497.938c-24.625 48.9229 -66.8672 70.4521 -94.3545 48.0918c-2.37402 -1.93164 -4.55469 -4.13379 -6.55273 -6.56543l-29.3408 58.3379l67.75 135.2
c5.54492 13.0186 7.59082 28.5254 4.89941 44.1191c-2.5752 14.9062 -9.05371 27.4375 -17.7637 36.2588l-4.5332 3.66504l-80.3066 -159.681l-80.3076 159.681l-4.53223 -3.66406c-8.70898 -8.82227 -15.1885 -21.3506 -17.7607 -36.2598
c-2.69434 -15.5928 -0.647461 -31.0986 4.89746 -44.1172l67.748 -135.201l-29.3398 -58.3379c-1.99805 2.43262 -4.17969 4.63281 -6.55176 6.56543c-27.4873 22.3604 -69.7305 0.831055 -94.3545 -48.0918c-24.623 -48.9209 -22.3037 -106.708 5.18066 -129.068
c27.4863 -22.3643 69.7275 -0.832031 94.3545 48.0889l60.666 121.067l60.667 -121.067c24.626 -48.9209 66.8682 -70.4541 94.3535 -48.0908c27.4844 22.3623 29.8037 80.1494 5.18164 129.069zM435.568 441.252c-11.0859 -22.0205 -25.3076 -32.7334 -34.9229 -35.4199
h-0.00292969c-3.13379 -0.876953 -7.49609 -1.41309 -10.46 0.999023c-3.2832 2.67188 -5.4668 9.74219 -5.83496 18.9092c-0.595703 14.8564 3.56152 32.3174 11.4072 47.9033c11.084 22.0215 25.3057 32.7354 34.9209 35.4219
c3.13672 0.874023 7.49902 1.41016 10.4629 -1.00098c3.28613 -2.67188 5.46582 -9.73926 5.83203 -18.9062c0.598633 -14.8594 -3.55859 -32.3193 -11.4023 -47.9062zM526.095 576.667c-6.52734 0 -11.8164 6.72852 -11.8164 15.0244
c0 8.29688 5.28906 15.0234 11.8164 15.0234c6.52539 0 11.8164 -6.72852 11.8164 -15.0234c0 -8.2959 -5.29102 -15.0244 -11.8164 -15.0244zM667.842 425.742c-0.368164 -9.16895 -2.54883 -16.2373 -5.83496 -18.9092
c-2.96387 -2.41406 -7.32324 -1.87793 -10.46 -0.999023h-0.000976562c-9.61621 2.68457 -23.8389 13.3984 -34.9229 35.4199c-7.84473 15.585 -12.0029 33.0469 -11.4043 47.9053c0.367188 9.16602 2.54688 16.2334 5.83301 18.9062
c2.96484 2.41113 7.3252 1.875 10.4639 1c9.61426 -2.68457 23.8359 -13.3975 34.9199 -35.4199c7.8457 -15.5869 12.002 -33.0479 11.4062 -47.9033z" />
  </g>

</svg>
