<?xml version="1.0" standalone="no"?>
<!DOCTYPE svg PUBLIC "-//W3C//DTD SVG 1.1//EN" "http://www.w3.org/Graphics/SVG/1.1/DTD/svg11.dtd" >
<svg xmlns="http://www.w3.org/2000/svg" xmlns:xlink="http://www.w3.org/1999/xlink" version="1.1" viewBox="-10 0 1069 1024">
  <g transform="matrix(1 0 0 -1 0 960)">
   <path fill="currentColor"
d="M15 909v-640h1024v640h-1024zM975 333h-896v512h896v-512zM687 205h-320l-32 -128l-64 -64h512l-64 64zM681.692 720.673c-8.1543 13.9277 -19.5234 30.208 -32.0078 45.8447c-12.4844 15.6348 -25.4873 29.8701 -36.6094 40.085
c-18.9375 17.3887 -28.1221 19.4004 -33.3857 19.4004h-182.117c-16.1963 0 -29.374 -16.501 -29.374 -36.7852v-397.276c0 -20.2822 13.1777 -36.7861 29.374 -36.7861h270.239c16.1973 0 29.373 16.5039 29.373 36.7861v286.924
c0 6.58887 -1.60449 18.0928 -15.4922 41.8076zM633.066 745.709c11.2744 -14.1172 20.1211 -26.8535 26.6494 -37.417h-56.5264v70.7861c8.43848 -8.17578 18.6074 -19.2568 29.877 -33.3691zM673.686 391.941c0 -3.9873 -2.68945 -7.35742 -5.87402 -7.35742h-270.239
c-3.18457 0 -5.875 3.37012 -5.875 7.35742v397.276c0 3.98828 2.69043 7.35742 5.875 7.35742c0 0 182.102 0.000976563 182.117 0v-102.998c0 -8.12598 5.26172 -14.7119 11.75 -14.7119h82.2461v-286.924zM614.938 443.441h-164.492
c-6.49023 0 -11.751 6.58594 -11.751 14.7139c0 8.12598 5.26074 14.7139 11.751 14.7139h164.492c6.48926 0 11.749 -6.58789 11.749 -14.7139c0 -8.12793 -5.25977 -14.7139 -11.749 -14.7139zM614.938 502.296h-164.492c-6.49023 0 -11.751 6.58789 -11.751 14.7148
c0 8.12598 5.26074 14.7139 11.751 14.7139h164.492c6.48926 0 11.749 -6.58691 11.749 -14.7139c0 -8.12891 -5.25977 -14.7148 -11.749 -14.7148zM614.938 561.152h-164.492c-6.49023 0 -11.751 6.58789 -11.751 14.7139c0 8.12695 5.26074 14.7139 11.751 14.7139
h164.492c6.48926 0 11.749 -6.58691 11.749 -14.7139c0 -8.12598 -5.25977 -14.7139 -11.749 -14.7139z" />
  </g>

</svg>
