<?xml version="1.0" standalone="no"?>
<!DOCTYPE svg PUBLIC "-//W3C//DTD SVG 1.1//EN" "http://www.w3.org/Graphics/SVG/1.1/DTD/svg11.dtd" >
<svg xmlns="http://www.w3.org/2000/svg" xmlns:xlink="http://www.w3.org/1999/xlink" version="1.1" viewBox="-10 0 1034 1000">
  <g transform="matrix(1 0 0 -1 0 800)">
   <path fill="currentColor"
d="M588.27 719.221c-0.807617 0.303711 -1.74414 0.478516 -2.72559 0.478516c-2.24121 0 -4.24414 -0.911133 -5.59863 -2.34766l-0.00878906 -0.00683594l-257.726 -275.75c-1.0957 -1.16895 -1.76367 -2.7002 -1.76367 -4.37109
c0 -1.03809 0.257812 -2.02148 0.717773 -2.90234l-0.0185547 0.0410156l58.9082 -114.337c1.20605 -2.29883 3.73535 -3.85938 6.66406 -3.85938h0.00195312h257.725h0.000976562c1.94531 0 3.71289 0.686523 5.03027 1.81055l-0.00292969 -0.00390625l110.452 94.1582
c1.43945 1.23242 2.33691 2.98145 2.33691 4.91895v0c0 122.9 -98.0195 274.416 -173.993 302.173v-0.00195312zM747.161 429.845l-118.989 72.4531l-42.5469 84.1982l6.69043 116.075c67.6992 -33.4756 148.87 -162.294 154.846 -272.727zM570.967 588.115
l-78.1016 -71.332l-136.914 -59.8086l221.088 236.552zM503.15 507.156l72.7637 66.458l39.2646 -77.6953l21.0088 -166.303h-237.163zM631.489 484.11l111.581 -67.9395l-92.9834 -79.2695zM337.593 434.042l142.465 62.2305l-92.9131 -158.409zM51.2139 790.972v-551.8
h920.953v551.8h-920.953zM914.607 294.352h-805.834v441.439h805.834v-441.439zM655.59 183.991h-287.799l-28.7793 -110.36l-57.5596 -55.1797h460.478l-57.5596 55.1797z" />
  </g>

</svg>
