<?xml version="1.0" standalone="no"?>
<!DOCTYPE svg PUBLIC "-//W3C//DTD SVG 1.1//EN" "http://www.w3.org/Graphics/SVG/1.1/DTD/svg11.dtd" >
<svg xmlns="http://www.w3.org/2000/svg" xmlns:xlink="http://www.w3.org/1999/xlink" version="1.1" viewBox="-10 0 1162 1024">
  <g transform="matrix(1 0 0 -1 0 960)">
   <path fill="currentColor"
d="M635.687 255.024h-74.6523v-74.0869h74.6523v74.0869zM458.389 518.957c0 60.9912 3.17676 71.166 28.0449 95.8457c47.6143 60.7568 167.915 20.2217 167.915 -58.8027c0 -43.3867 -31.4795 -54.6924 -57.1592 -73.8057
c-16.5625 -16.4414 -36.1553 -37.7441 -36.1553 -69.7363v-101.869h74.6523v101.308c0.139648 0.389648 8.6875 12.9463 15.9326 17.6865c22.3447 14.6182 77.3809 50.6396 77.3809 126.417c0 87.0049 -71.8994 144.664 -132.622 156.716
c-65.9072 13.0811 -124.319 2.63574 -165.992 -48.8008c-40.0596 -40.7246 -46.6475 -84.6494 -46.6475 -144.958h74.6504zM901.604 449.415c0 -186.559 -152.615 -338.019 -340.597 -338.019c-190.054 0 -340.569 151.853 -340.569 342.495
c2.41602 184.497 154.097 333.543 340.569 333.543c187.981 0 340.597 -151.461 340.597 -338.02zM561.007 861.521c-231.626 0 -415.22 -184.949 -415.22 -417.115c2.79688 -225.045 187.758 -407.096 415.22 -407.096c229.181 0 415.247 184.659 415.247 412.105
c0 227.445 -186.066 412.105 -415.247 412.105z" />
  </g>

</svg>
